<?xml version="1.0" encoding="UTF-8" standalone="no"?>
<!-- Created with Inkscape (http://www.inkscape.org/) -->

<svg
   width="210mm"
   height="297mm"
   viewBox="0 0 210 297"
   version="1.1"
   id="svg941"
   inkscape:version="1.1.2 (b8e25be833, 2022-02-05)"
   sodipodi:docname="addcontact.svg"
   xmlns:inkscape="http://www.inkscape.org/namespaces/inkscape"
   xmlns:sodipodi="http://sodipodi.sourceforge.net/DTD/sodipodi-0.dtd"
   xmlns="http://www.w3.org/2000/svg"
   xmlns:svg="http://www.w3.org/2000/svg">
  <sodipodi:namedview
     id="namedview943"
     pagecolor="#ffffff"
     bordercolor="#666666"
     borderopacity="1.0"
     inkscape:pageshadow="2"
     inkscape:pageopacity="0.0"
     inkscape:pagecheckerboard="0"
     inkscape:document-units="mm"
     showgrid="false"
     inkscape:zoom="4.1474471"
     inkscape:cx="224.95766"
     inkscape:cy="157.68736"
     inkscape:window-width="1920"
     inkscape:window-height="1009"
     inkscape:window-x="-8"
     inkscape:window-y="-8"
     inkscape:window-maximized="1"
     inkscape:current-layer="layer1" />
  <defs
     id="defs938" />
  <g
     inkscape:label="Ebene 1"
     inkscape:groupmode="layer"
     id="layer1">
    <path
       d="m 67.302858,46.143244 c -0.424127,0 -0.838464,-0.125704 -1.190889,-0.361262 -0.35269,-0.235532 -0.627327,-0.570309 -0.789517,-0.961999 -0.162189,-0.391662 -0.204787,-0.822669 -0.121973,-1.238488 0.08255,-0.415792 0.286809,-0.797745 0.586582,-1.097518 0.299772,-0.299773 0.681831,-0.503952 1.097491,-0.58666 0.415925,-0.08271 0.846931,-0.04024 1.238515,0.121999 0.391583,0.162242 0.726546,0.436986 0.962025,0.78949 0.235479,0.352504 0.361156,0.766921 0.361156,1.19089 -0.0013,0.568113 -0.227542,1.112599 -0.629179,1.514342 -0.401638,0.401717 -0.94615,0.627962 -1.514211,0.629206 z m 0,-3.810767 c -0.329935,0 -0.652197,0.09779 -0.926306,0.280987 -0.274108,0.183198 -0.487891,0.443574 -0.614098,0.748215 -0.126206,0.304642 -0.159279,0.639869 -0.09499,0.963269 0.06456,0.3234 0.223308,0.620474 0.456406,0.853652 0.233098,0.23315 0.530225,0.391927 0.853546,0.456274 0.323585,0.06432 0.658812,0.0313 0.963348,-0.09488 0.304535,-0.12618 0.56515,-0.339884 0.748241,-0.614045 0.183092,-0.274188 0.280988,-0.596503 0.280988,-0.926253 0,-0.442172 -0.175683,-0.866246 -0.488421,-1.178904 -0.312473,-0.312658 -0.7366,-0.488315 -1.178719,-0.488315 z"
       fill="#ffffff"
       id="path1058"
       style="fill:#ffffff;stroke-width:0.264583"
       inkscape:export-filename="C:\Users\AlexanderSchönfeld\_training\Developer Akademie\_join\Gruppenarbeit-Join-391\src\img\addcontact.png"
       inkscape:export-xdpi="96"
       inkscape:export-ydpi="96" />
    <path
       d="M 68.969733,49.71586 H 63.92995 l 0.04286,-0.276278 c 0.105039,-0.832459 0.505883,-1.59938 1.129241,-2.160799 0.623623,-0.561446 1.428221,-0.879925 2.267215,-0.897335 0.433652,-0.0038 0.864129,0.0771 1.267089,0.238178 0.0299,0.01135 0.05715,0.02863 0.08043,0.05083 0.02302,0.0222 0.04154,0.04881 0.05398,0.07829 0.0127,0.02948 0.01931,0.0612 0.01931,0.09324 0,0.03207 -0.0063,0.06379 -0.01905,0.09332 -0.01243,0.0295 -0.03069,0.0562 -0.05371,0.07845 -0.02328,0.02225 -0.05054,0.03961 -0.08043,0.05106 -0.0299,0.01143 -0.06191,0.01672 -0.09393,0.01553 -0.03201,-0.0012 -0.0635,-0.0088 -0.0926,-0.02249 -0.34237,-0.143299 -0.709877,-0.217752 -1.081087,-0.219128 -0.675217,0.01683 -1.324769,0.261223 -1.843617,0.693526 -0.518848,0.432329 -0.8763,1.027218 -1.014677,1.6882 h 4.473046 c 0.06324,0 0.123825,0.02511 0.168275,0.06977 0.04471,0.04466 0.06985,0.105251 0.06985,0.168407 0,0.06316 -0.02514,0.123745 -0.06985,0.168407 -0.04445,0.04466 -0.10504,0.06977 -0.168275,0.06977 z"
       fill="#ffffff"
       id="path1060"
       style="fill:#ffffff;stroke-width:0.264583"
       inkscape:export-filename="C:\Users\AlexanderSchönfeld\_training\Developer Akademie\_join\Gruppenarbeit-Join-391\src\img\addcontact.png"
       inkscape:export-xdpi="96"
       inkscape:export-ydpi="96" />
    <path
       d="m 70.755671,45.904934 c -0.367771,2.38e-4 -0.727604,0.106997 -1.036108,0.307313 -0.308505,0.200343 -0.55245,0.485696 -0.702469,0.821611 -0.111125,0.243681 -0.168011,0.508608 -0.166688,0.776446 0,0.376846 0.111654,0.745226 0.321204,1.058572 0.209286,0.313346 0.506942,0.557556 0.855134,0.70178 0.347927,0.144198 0.731044,0.181928 1.100666,0.108427 0.369623,-0.07353 0.709084,-0.255006 0.975784,-0.521468 0.266435,-0.266488 0.447939,-0.605975 0.521494,-0.975598 0.07329,-0.369596 0.03572,-0.752713 -0.10848,-1.100878 C 72.37201,46.732974 72.1278,46.435397 71.814269,46.226032 71.501002,46.016667 71.132702,45.904934 70.755671,45.904934 Z m 0.952764,2.162598 H 71.01311 v 0.695457 c 0,0.06824 -0.02725,0.133641 -0.07541,0.181901 -0.04815,0.04823 -0.113771,0.07533 -0.182033,0.07533 -0.068,0 -0.133615,-0.02709 -0.181769,-0.07533 -0.04815,-0.04826 -0.07541,-0.113665 -0.07541,-0.181901 v -0.714507 h -0.695325 c -0.03387,0 -0.0672,-0.0067 -0.09843,-0.01958 -0.03122,-0.01294 -0.05953,-0.03188 -0.08361,-0.05577 -0.02381,-0.02387 -0.04286,-0.05223 -0.05556,-0.08345 -0.01296,-0.03119 -0.01958,-0.06464 -0.01958,-0.09842 -2.65e-4,-0.04593 0.01191,-0.09104 0.03545,-0.130492 0.02355,-0.03945 0.05741,-0.07173 0.0979,-0.0934 0.03678,-0.02379 0.0799,-0.03543 0.123825,-0.03334 h 0.695325 v -0.676407 c 0,-0.06824 0.02725,-0.133641 0.07541,-0.181901 0.04815,-0.04823 0.113771,-0.07533 0.181769,-0.07533 0.06826,0 0.133879,0.02709 0.182033,0.07533 0.04815,0.04826 0.07541,0.113665 0.07541,0.181901 v 0.714507 h 0.695325 c 0.06826,0 0.133615,0.02709 0.182034,0.07535 0.04815,0.04823 0.07514,0.113665 0.07514,0.181874 0,0.06824 -0.02699,0.133641 -0.07514,0.181901 -0.04842,0.04823 -0.113771,0.07533 -0.182034,0.07533 z"
       fill="#ffffff"
       id="path1062"
       style="fill:#ffffff;stroke-width:0.264583"
       inkscape:export-filename="C:\Users\AlexanderSchönfeld\_training\Developer Akademie\_join\Gruppenarbeit-Join-391\src\img\addcontact.png"
       inkscape:export-xdpi="96"
       inkscape:export-ydpi="96" />
  </g>
</svg>
